<svg xmlns="http://www.w3.org/2000/svg" width="21.117" height="26.447" viewBox="0 0 21.117 26.447">
  <g id="Group_178" data-name="Group 178" transform="translate(-588.216 -323.19)">
    <g id="Group_171" data-name="Group 171">
      <path id="Path_2144" data-name="Path 2144" d="M598.774,349.637l-.141-.046a15.692,15.692,0,0,1-7.042-4.631l-.067-.079a14.223,14.223,0,0,1-3.308-9.293v-8.3l.435-.024a16.988,16.988,0,0,0,9.83-3.837l.293-.24.293.241a16.973,16.973,0,0,0,4.914,2.816h0a17.013,17.013,0,0,0,4.916,1.02l.436.024v8.3a14.229,14.229,0,0,1-3.312,9.3l-.067.077a15.684,15.684,0,0,1-7.038,4.629Zm-9.635-21.479v7.43a13.306,13.306,0,0,0,3.089,8.695,14.84,14.84,0,0,0,6.546,4.382,14.739,14.739,0,0,0,6.484-4.31,13.359,13.359,0,0,0,3.151-8.767v-7.43a17.8,17.8,0,0,1-4.746-1.044h0a17.9,17.9,0,0,1-4.889-2.734,17.9,17.9,0,0,1-9.635,3.778Z" fill="#16ac21"/>
    </g>
    <g id="Group_177" data-name="Group 177">
      <g id="Group_172" data-name="Group 172">
        <path id="Path_2145" data-name="Path 2145" d="M597.913,334.959a3.587,3.587,0,0,1,1.609-.089c1.521.257,4.365,5.088,4.113,6.649-.411,2.537-3.244,1.076-4.951,1.061-1.014-.009-2.04.6-2.989.48C591.794,342.58,596.753,335.3,597.913,334.959Z" fill="#16ac21"/>
      </g>
      <g id="Group_173" data-name="Group 173">
        <path id="Path_2146" data-name="Path 2146" d="M601.56,329.589a1.134,1.134,0,0,1,1.038.83c.537,1.762-.066,4.6-2.141,3.995C599.117,334.027,599.371,329.568,601.56,329.589Z" fill="#16ac21"/>
      </g>
      <g id="Group_174" data-name="Group 174">
        <path id="Path_2147" data-name="Path 2147" d="M603.861,333.559a1.661,1.661,0,0,1,1.665.715c.763,1.216-.607,3.486-1.825,3.5a1.323,1.323,0,0,1-.959-.5C601.89,336.233,602.559,333.85,603.861,333.559Z" fill="#16ac21"/>
      </g>
      <g id="Group_175" data-name="Group 175">
        <path id="Path_2148" data-name="Path 2148" d="M596.273,329.589a1.133,1.133,0,0,0-1.037.83c-.538,1.762.066,4.6,2.141,3.995C598.717,334.027,598.463,329.568,596.273,329.589Z" fill="#16ac21"/>
      </g>
      <g id="Group_176" data-name="Group 176">
        <path id="Path_2149" data-name="Path 2149" d="M593.972,333.559a1.662,1.662,0,0,0-1.665.715c-.763,1.216.607,3.486,1.825,3.5a1.326,1.326,0,0,0,.96-.5C595.944,336.233,595.275,333.85,593.972,333.559Z" fill="#16ac21"/>
      </g>
    </g>
  </g>
</svg>
